<svg width="30" height="342" viewBox="0 0 30 342" fill="none" xmlns="http://www.w3.org/2000/svg">
<ellipse cx="5" cy="5.19149" rx="5" ry="5.19149" transform="matrix(-1 0 0 1 30 82.2129)" fill="#41EAD4"/>
<ellipse cx="5" cy="5.19149" rx="5" ry="5.19149" transform="matrix(-1 0 0 1 10 82.2129)" fill="#41EAD4"/>
<ellipse cx="5" cy="5.19149" rx="5" ry="5.19149" transform="matrix(-1 0 0 1 30 102.979)" fill="#41EAD4"/>
<ellipse cx="5" cy="5.19149" rx="5" ry="5.19149" transform="matrix(-1 0 0 1 10 102.979)" fill="#41EAD4"/>
<ellipse cx="5" cy="5.19149" rx="5" ry="5.19149" transform="matrix(-1 0 0 1 30 123.745)" fill="#41EAD4"/>
<ellipse cx="5" cy="5.19149" rx="5" ry="5.19149" transform="matrix(-1 0 0 1 10 123.745)" fill="#41EAD4"/>
<ellipse cx="5" cy="5.19149" rx="5" ry="5.19149" transform="matrix(-1 0 0 1 30 144.511)" fill="#41EAD4"/>
<ellipse cx="5" cy="5.19149" rx="5" ry="5.19149" transform="matrix(-1 0 0 1 10 144.511)" fill="#41EAD4"/>
<ellipse cx="5" cy="5.19149" rx="5" ry="5.19149" transform="matrix(-1 0 0 1 30 165.277)" fill="#41EAD4"/>
<ellipse cx="5" cy="5.19149" rx="5" ry="5.19149" transform="matrix(-1 0 0 1 10 165.277)" fill="#41EAD4"/>
<ellipse cx="5" cy="5.19149" rx="5" ry="5.19149" transform="matrix(-1 0 0 1 30 186.042)" fill="#41EAD4"/>
<ellipse cx="5" cy="5.19149" rx="5" ry="5.19149" transform="matrix(-1 0 0 1 10 186.042)" fill="#41EAD4"/>
<ellipse cx="5" cy="5.19149" rx="5" ry="5.19149" transform="matrix(-1 0 0 1 30 0)" fill="#41EAD4"/>
<ellipse cx="5" cy="5.19149" rx="5" ry="5.19149" transform="matrix(-1 0 0 1 10 0)" fill="#41EAD4"/>
<ellipse cx="5" cy="5.19149" rx="5" ry="5.19149" transform="matrix(-1 0 0 1 30 20.2979)" fill="#41EAD4"/>
<ellipse cx="5" cy="5.19149" rx="5" ry="5.19149" transform="matrix(-1 0 0 1 10 20.2979)" fill="#41EAD4"/>
<ellipse cx="5" cy="5.19149" rx="5" ry="5.19149" transform="matrix(-1 0 0 1 30 41.0637)" fill="#41EAD4"/>
<ellipse cx="5" cy="5.19149" rx="5" ry="5.19149" transform="matrix(-1 0 0 1 10 41.0637)" fill="#41EAD4"/>
<ellipse cx="5" cy="5.19149" rx="5" ry="5.19149" transform="matrix(-1 0 0 1 30 61.8298)" fill="#41EAD4"/>
<ellipse cx="5" cy="5.19149" rx="5" ry="5.19149" transform="matrix(-1 0 0 1 10 61.8298)" fill="#41EAD4"/>
<ellipse cx="5" cy="5.19149" rx="5" ry="5.19149" transform="matrix(-1 0 0 1 30 206.426)" fill="#41EAD4"/>
<ellipse cx="5" cy="5.19149" rx="5" ry="5.19149" transform="matrix(-1 0 0 1 10 206.426)" fill="#41EAD4"/>
<ellipse cx="5" cy="5.19149" rx="5" ry="5.19149" transform="matrix(-1 0 0 1 30 227.191)" fill="#41EAD4"/>
<ellipse cx="5" cy="5.19149" rx="5" ry="5.19149" transform="matrix(-1 0 0 1 10 227.191)" fill="#41EAD4"/>
<ellipse cx="5" cy="5.19149" rx="5" ry="5.19149" transform="matrix(-1 0 0 1 30 247.957)" fill="#41EAD4"/>
<ellipse cx="5" cy="5.19149" rx="5" ry="5.19149" transform="matrix(-1 0 0 1 10 247.957)" fill="#41EAD4"/>
<ellipse cx="5" cy="5.19149" rx="5" ry="5.19149" transform="matrix(-1 0 0 1 30 268.723)" fill="#41EAD4"/>
<ellipse cx="5" cy="5.19149" rx="5" ry="5.19149" transform="matrix(-1 0 0 1 10 268.723)" fill="#41EAD4"/>
<ellipse cx="5" cy="5.19149" rx="5" ry="5.19149" transform="matrix(-1 0 0 1 30 289.489)" fill="#41EAD4"/>
<ellipse cx="5" cy="5.19149" rx="5" ry="5.19149" transform="matrix(-1 0 0 1 10 289.489)" fill="#41EAD4"/>
<ellipse cx="5" cy="5.19149" rx="5" ry="5.19149" transform="matrix(-1 0 0 1 30 310.255)" fill="#41EAD4"/>
<ellipse cx="5" cy="5.19149" rx="5" ry="5.19149" transform="matrix(-1 0 0 1 10 310.255)" fill="#41EAD4"/>
<ellipse cx="5" cy="5.19149" rx="5" ry="5.19149" transform="matrix(-1 0 0 1 30 330.638)" fill="#41EAD4"/>
<ellipse cx="5" cy="5.19149" rx="5" ry="5.19149" transform="matrix(-1 0 0 1 10 330.638)" fill="#41EAD4"/>
</svg>
