<svg width="32" height="24" viewBox="0 0 32 24" fill="none" xmlns="http://www.w3.org/2000/svg">
<path d="M31.7108 0.984009L31.8072 1.15877C29.8795 2.09081 28.3052 3.45974 27.0843 5.26557C25.8635 7.01314 25.253 8.8481 25.253 10.7704C25.253 11.0617 25.2851 11.2947 25.3494 11.4695C25.4779 11.586 25.6064 11.7025 25.7349 11.819C25.9277 11.8772 26.1847 11.9355 26.506 11.9937C28.1767 12.2267 29.494 12.8966 30.4578 14.0034C31.4859 15.052 32 16.3335 32 17.8481C32 19.5374 31.3574 20.9646 30.0723 22.1297C28.7872 23.2365 27.1807 23.7899 25.253 23.7899C23.0683 23.7899 21.3012 23.12 19.9518 21.7801C18.6024 20.4403 17.9277 18.6636 17.9277 16.45C17.9277 12.9549 19.2129 9.72189 21.7831 6.75101C24.3534 3.78013 27.6627 1.8578 31.7108 0.984009ZM13.7831 0.984009L13.8795 1.15877C11.9518 2.09081 10.3775 3.45974 9.15663 5.26557C7.93574 7.01314 7.3253 8.8481 7.3253 10.7704C7.3253 11.0617 7.35743 11.2947 7.42169 11.4695C7.5502 11.586 7.67871 11.7025 7.80723 11.819C8 11.8772 8.25703 11.9355 8.57831 11.9937C10.249 12.2267 11.5663 12.8966 12.5301 14.0034C13.5582 15.052 14.0723 16.3335 14.0723 17.8481C14.0723 19.5374 13.4297 20.9646 12.1446 22.1297C10.8594 23.2365 9.25301 23.7899 7.3253 23.7899C5.14056 23.7899 3.37349 23.12 2.0241 21.7801C0.674699 20.4403 0 18.6636 0 16.45C0 12.9549 1.28514 9.72189 3.85542 6.75101C6.4257 3.78013 9.73494 1.8578 13.7831 0.984009Z" fill="#41EAD4"/>
</svg>
