<svg width="29" height="28" viewBox="0 0 29 28" fill="none" xmlns="http://www.w3.org/2000/svg">
<g clip-path="url(#clip0_1_2126)">
<path d="M20.2712 3.01233H8.51584C5.2697 3.01233 2.63818 5.52727 2.63818 8.62961V19.8642C2.63818 22.9665 5.2697 25.4815 8.51584 25.4815H20.2712C23.5173 25.4815 26.1488 22.9665 26.1488 19.8642V8.62961C26.1488 5.52727 23.5173 3.01233 20.2712 3.01233Z" stroke="#41EAD4" stroke-width="2" stroke-linecap="round" stroke-linejoin="round"/>
<path d="M19.0956 13.5391C19.2407 14.4741 19.0736 15.429 18.618 16.268C18.1625 17.107 17.4418 17.7874 16.5583 18.2123C15.6749 18.6373 14.6738 18.7852 13.6973 18.6351C12.7208 18.4849 11.8188 18.0443 11.1194 17.3759C10.4201 16.7075 9.95904 15.8454 9.80191 14.9122C9.64478 13.979 9.79956 13.0222 10.2442 12.1779C10.6889 11.3336 11.4008 10.6448 12.2787 10.2095C13.1565 9.77414 14.1557 9.61443 15.134 9.75308C16.132 9.89451 17.0559 10.3389 17.7692 11.0207C18.4826 11.7024 18.9476 12.5854 19.0956 13.5391Z" stroke="#41EAD4" stroke-width="2" stroke-linecap="round" stroke-linejoin="round"/>
</g>
<defs>
<clipPath id="clip0_1_2126">
<rect width="28.2128" height="26.963" fill="white" transform="translate(0.287109 0.765442)"/>
</clipPath>
</defs>
</svg>
