<svg width="29" height="28" viewBox="0 0 29 28" fill="none" xmlns="http://www.w3.org/2000/svg">
<g clip-path="url(#clip0_1_2132)">
<path d="M27.0687 4.13581C25.943 4.89468 24.6966 5.47509 23.3776 5.8547C22.6696 5.07672 21.7287 4.5253 20.6821 4.27503C19.6355 4.02477 18.5338 4.08772 17.5259 4.45538C16.5179 4.82304 15.6525 5.47767 15.0465 6.33073C14.4406 7.18378 14.1234 8.19411 14.1379 9.22507V10.3485C12.072 10.3997 10.025 9.96185 8.17912 9.0739C6.33322 8.18596 4.74575 6.87551 3.55809 5.25927C3.55809 5.25927 -1.14403 15.3704 9.43575 19.8642C7.01478 21.4348 4.13076 22.2223 1.20703 22.1111C11.7868 27.7284 24.7177 22.1111 24.7177 9.19136C24.7166 8.87843 24.6851 8.56627 24.6236 8.2589C25.8234 7.12813 26.67 5.70046 27.0687 4.13581V4.13581Z" stroke="#41EAD4" stroke-width="2" stroke-linecap="round" stroke-linejoin="round"/>
</g>
<defs>
<clipPath id="clip0_1_2132">
<rect width="28.2128" height="26.963" fill="white" transform="translate(0.0317383 0.765442)"/>
</clipPath>
</defs>
</svg>
