<svg width="110" height="98" viewBox="0 0 110 98" fill="none" xmlns="http://www.w3.org/2000/svg">
<path d="M4.1014 85.4777L10.9627 78.7289L17.9811 85.7471C18.1306 85.8961 18.3002 86.0106 18.4768 86.109L20.1001 81.5739L12.5749 74.0496C12.1557 73.6297 11.5829 73.3934 10.9853 73.3909C10.4178 73.4401 9.81325 73.6212 9.39025 74.0372L0.9301 82.358C0.0539499 83.2197 0.0539499 84.6158 0.9301 85.4777C1.80595 86.3393 3.22525 86.3393 4.1014 85.4777Z" fill="#FFFFFF"/>
<path d="M89.3082 41.9578C88.9883 41.0825 88.144 40.499 87.1981 40.499C86.2517 40.499 85.4076 41.0825 85.0879 41.9578L77.4375 62.8752L65.0215 28.9342C64.7019 28.0577 63.8575 27.4742 62.9115 27.4742C61.9654 27.4742 61.1209 28.0577 60.8014 28.9342L48.2428 63.2691L40.456 41.9825C40.1362 41.1059 39.292 40.5224 38.3458 40.5224C37.3996 40.5224 36.5554 41.1059 36.2358 41.9825L21.3036 82.8052C21.3004 82.8015 21.2979 82.7976 21.2947 82.7954L17.7246 92.6661C17.7246 92.6661 14.0893 92.7103 13.0754 92.7202V89.2241L16.232 92.3804L17.8904 87.7481L12.5749 82.4323C12.1557 82.0126 11.5829 81.7762 10.9853 81.7737C10.4178 81.7873 9.81325 82.004 9.39025 82.4201L0.9301 90.7408C0.0539499 91.6026 0.0539499 92.9998 0.9301 93.8604C1.80625 94.7222 3.22555 94.7222 4.1017 93.8604L8.58985 89.4458V94.8563C8.58865 94.8933 8.5798 94.9276 8.5798 94.9659C8.5924 96.1759 9.59425 97.1498 10.822 97.1498C10.8303 97.1498 10.8376 97.1498 10.8451 97.1498C13.4604 97.1227 16.0788 97.1116 18.6958 97.0895C25.1854 97.0367 31.6705 96.9984 38.1574 96.9751C44.9086 96.9518 51.6447 96.9431 58.3701 96.9518C61.3471 96.9554 64.3221 96.9604 67.2916 96.9703C74.0133 96.9924 80.7043 97.0318 87.3664 97.0873C87.2663 97.1129 87.1626 97.1215 87.0585 97.1339H106.3C107.031 97.1339 107.715 96.7844 108.135 96.196C108.555 95.6088 108.658 94.8564 108.41 94.1806L89.3082 41.9578ZM87.198 49.2211L90.4651 58.1539L87.1759 61.8706L83.8804 58.2903L87.198 49.2211ZM62.9113 36.1975L67.5897 48.9873L62.7292 54.265L58.0789 49.4084L62.9113 36.1975ZM38.3457 49.2444L41.6425 58.2573L38.4441 61.8706L35.0685 58.2031L38.3457 49.2444ZM37.4251 92.7459H22.4335L22.4692 92.6488L33.348 62.9072L36.8135 66.6729C37.2391 67.1359 37.843 67.3994 38.4763 67.3994C38.4832 67.3994 38.4907 67.3994 38.4982 67.3994C39.139 67.393 39.7466 67.1174 40.1678 66.6409L43.3813 63.0105L45.8588 69.7851L37.4251 92.7459ZM66.5085 92.7534H59.0271H42.225L42.2275 92.7459H42.1918L48.2426 76.3011L50.6257 69.7851L56.3755 54.0655L61.129 59.0279C61.5532 59.4711 62.1441 59.7224 62.7617 59.7224C62.7692 59.7224 62.7761 59.7224 62.7836 59.7224C63.4095 59.7162 64.0039 59.4527 64.4239 58.9972L69.3108 53.69L75.0535 69.3912L77.4373 75.9072L83.5531 92.7534H66.5085ZM92.4565 92.7214H88.3543H88.3086L79.8205 69.3912L82.1603 62.9945L85.5458 66.673C85.9714 67.136 86.5751 67.3995 87.2086 67.3995C87.2155 67.3995 87.223 67.3995 87.2305 67.3995C87.8712 67.3932 88.4788 67.1176 88.9001 66.641L92.2042 62.9084L103.111 92.7214H92.4565Z" fill="#FFFFFF"/>
<path d="M4.1014 77.0953L10.9627 70.3465L17.9811 77.3649C18.4204 77.8044 18.9999 78.0235 19.5801 78.0235C20.1477 78.0235 20.7159 77.813 21.1527 77.3907C22.0357 76.5363 22.0476 75.1391 21.1791 74.2711L12.5749 65.6672C12.1557 65.2473 11.5829 65.0111 10.9853 65.0085C10.4178 64.9753 9.81325 65.2376 9.39025 65.6537L0.9301 73.9756C0.0539499 74.8375 0.0539499 76.2349 0.9301 77.0953C1.80595 77.957 3.22525 77.957 4.1014 77.0953Z" fill="#FFFFFF"/>
<path d="M10.4638 30.9716C14.9308 30.9716 18.5653 27.3966 18.5653 23.0028C18.5653 18.6092 14.9308 15.0341 10.4638 15.0341C5.9968 15.0341 2.3623 18.6092 2.3623 23.0028C2.3623 27.3966 5.99695 30.9716 10.4638 30.9716ZM10.4638 19.4463C12.4576 19.4463 14.0797 21.0417 14.0797 23.0028C14.0797 24.9639 12.4576 26.5594 10.4638 26.5594C8.47 26.5594 6.8479 24.9639 6.8479 23.0028C6.8479 21.0417 8.47015 19.4463 10.4638 19.4463Z" fill="#FFFFFF"/>
<path d="M83.7217 5.08705C83.7355 5.08705 83.7479 5.08705 83.7617 5.08705C83.8331 5.08956 90.2212 5.01077 93.7469 8.4774C94.1675 8.89095 94.7176 9.09781 95.2708 9.09781C95.3959 9.09781 95.521 9.08305 95.6462 9.06343C95.7688 9.08305 95.8939 9.09781 96.0217 9.09781C96.5725 9.09781 97.1231 8.89095 97.5436 8.4774C101.05 5.02789 107.396 5.08454 107.526 5.08705C108.72 5.11774 109.699 4.18838 109.727 3.01882C109.754 1.85059 108.813 0.880362 107.624 0.853362C107.316 0.839788 100.5 0.743739 95.6461 4.49615C90.7892 0.746247 83.9717 0.850854 83.6677 0.853362C82.48 0.880509 81.5413 1.84676 81.5662 3.01395C81.5914 4.16861 82.5527 5.08705 83.7217 5.08705Z" fill="#FFFFFF"/>
<path d="M69.2157 15.2398C69.2646 15.2398 74.067 15.1979 76.7215 18.4578C77.1457 18.9798 77.7715 19.2519 78.4038 19.2519C78.5038 19.2519 78.6027 19.2174 78.7015 19.2026C78.8029 19.2174 78.9006 19.2519 79.002 19.2519C79.6327 19.2519 80.2585 18.9798 80.6841 18.4578C83.3323 15.2041 88.0834 15.2324 88.1974 15.241C89.3752 15.273 90.37 14.3522 90.4041 13.185C90.4389 12.0154 89.5041 11.0405 88.3137 11.0071C88.0597 10.9974 82.7115 10.9025 78.7015 14.3988C74.6926 10.9039 69.3472 11.0023 69.0892 11.0071C67.9015 11.0405 66.9666 12.0154 67.0003 13.185C67.0353 14.3534 68.0353 15.3161 69.2157 15.2398Z" fill="#FFFFFF"/>
</svg>
